<?xml version="1.0" encoding="UTF-8" standalone="no"?>
<!DOCTYPE svg PUBLIC "-//W3C//DTD SVG 1.1//EN" "http://www.w3.org/Graphics/SVG/1.1/DTD/svg11.dtd">
<svg width="100%" height="100%" viewBox="0 0 291 90" version="1.1" xmlns="http://www.w3.org/2000/svg" xmlns:xlink="http://www.w3.org/1999/xlink" xml:space="preserve" xmlns:serif="http://www.serif.com/" style="fill-rule:evenodd;clip-rule:evenodd;stroke-linejoin:round;stroke-miterlimit:2;">
    <g transform="matrix(1,0,0,1,-12.573557,-305.620444)">
        <g>
            <g transform="matrix(2.370833,0,0,0.775472,-440.826551,76.941157)">
                <path d="M313.869,323.905L313.869,381.934C313.869,397.948 309.616,410.949 304.378,410.949L200.731,410.949C195.493,410.949 191.241,397.948 191.241,381.934L191.241,323.905C191.241,307.892 195.493,294.891 200.731,294.891L304.378,294.891C309.616,294.891 313.869,307.892 313.869,323.905Z" style="fill:url(#_Linear1);"/>
                <path d="M313.869,323.905L313.869,381.934C313.869,397.948 309.616,410.949 304.378,410.949L200.731,410.949C195.493,410.949 191.241,397.948 191.241,381.934L191.241,323.905C191.241,307.892 195.493,294.891 200.731,294.891L304.378,294.891C309.616,294.891 313.869,307.892 313.869,323.905ZM311.232,323.905C311.232,312.34 308.161,302.95 304.378,302.95L200.731,302.95C196.948,302.95 193.877,312.34 193.877,323.905L193.877,381.934C193.877,393.5 196.948,402.889 200.731,402.889L304.378,402.889C308.161,402.889 311.232,393.5 311.232,381.934L311.232,323.905Z" style="fill:rgb(255,243,242);"/>
            </g>
            <g transform="matrix(1,0,0,1,-167.35037,3.185443)">
                <path d="M275.289,331.081C275.489,331.081 275.643,331.168 275.751,331.343C275.86,331.518 275.864,331.698 275.764,331.881C275.514,332.314 275.372,332.781 275.339,333.281C275.256,334.548 275.214,335.581 275.214,336.381C275.214,336.914 275.131,337.443 274.964,337.968C274.797,338.493 274.547,338.989 274.214,339.456C273.881,339.923 273.485,340.335 273.026,340.693C272.568,341.052 272.031,341.335 271.414,341.543C270.797,341.752 270.139,341.856 269.439,341.856C267.322,341.856 265.597,341.156 264.264,339.756C262.731,338.156 261.964,335.856 261.964,332.856C261.964,331.773 262.064,330.781 262.263,329.881C262.463,328.981 262.741,328.21 263.099,327.568C263.457,326.927 263.869,326.36 264.334,325.868C264.8,325.377 265.32,324.989 265.894,324.706C266.468,324.423 267.046,324.21 267.628,324.068C268.21,323.927 268.809,323.856 269.425,323.856C270.539,323.856 271.57,324.068 272.519,324.493C273.467,324.918 274.265,325.531 274.914,326.331C275.014,326.431 275.064,326.552 275.064,326.693C275.064,326.835 275.014,326.956 274.914,327.056L272.564,329.406C272.464,329.523 272.339,329.581 272.189,329.581C271.906,329.581 271.731,329.439 271.664,329.156C271.531,328.639 271.256,328.218 270.839,327.893C270.422,327.568 269.956,327.406 269.439,327.406C268.522,327.406 267.789,327.756 267.239,328.456C266.489,329.356 266.114,330.823 266.114,332.856C266.114,333.823 266.197,334.668 266.364,335.393C266.531,336.118 266.76,336.685 267.051,337.093C267.343,337.502 267.651,337.806 267.976,338.006C268.301,338.206 268.656,338.306 269.039,338.306C269.572,338.306 270.006,338.102 270.339,337.693C270.672,337.285 270.839,336.756 270.839,336.106C270.839,335.606 270.814,334.948 270.764,334.131L270.689,332.881C270.672,332.614 270.539,332.289 270.289,331.906C270.189,331.723 270.189,331.539 270.289,331.356C270.389,331.173 270.547,331.081 270.764,331.081L275.289,331.081Z" style="fill:white;"/>
            </g>
            <g transform="matrix(1,0,0,1,-167.35037,3.185443)">
                <path d="M289.689,339.231C289.689,339.731 289.814,340.206 290.064,340.656C290.164,340.839 290.164,341.018 290.064,341.193C289.964,341.368 289.814,341.456 289.614,341.456L285.811,341.456C285.662,341.456 285.533,341.402 285.425,341.293C285.318,341.185 285.264,341.056 285.264,340.906L285.264,340.731C284.609,341.314 283.862,341.639 283.023,341.706C282.855,341.723 282.687,341.731 282.519,341.731C280.966,341.731 279.756,341.123 278.889,339.906C278.022,338.689 277.589,337.014 277.589,334.881C277.556,333.548 277.506,332.373 277.439,331.356L277.389,330.506C277.356,330.006 277.214,329.531 276.964,329.081C276.864,328.914 276.864,328.739 276.964,328.556C277.064,328.373 277.222,328.281 277.439,328.281L281.965,328.281C282.167,328.281 282.322,328.373 282.431,328.556C282.54,328.739 282.536,328.923 282.419,329.106C282.217,329.439 282.091,329.764 282.041,330.081C281.873,330.998 281.789,332.256 281.789,333.856L281.789,334.881C281.789,336.098 281.953,336.989 282.28,337.556C282.526,337.973 282.846,338.181 283.239,338.181C283.321,338.181 283.395,338.173 283.461,338.156C284.218,338.023 284.811,337.298 285.239,335.981L285.239,334.881C285.239,332.964 285.164,331.506 285.014,330.506C285.014,330.006 284.889,329.531 284.639,329.081C284.539,328.914 284.539,328.739 284.639,328.556C284.739,328.373 284.889,328.281 285.089,328.281L289.614,328.281C289.814,328.281 289.964,328.373 290.064,328.556C290.164,328.739 290.164,328.914 290.064,329.081C289.814,329.531 289.689,330.006 289.689,330.506C289.539,332.439 289.464,333.893 289.464,334.868C289.464,335.843 289.539,337.298 289.689,339.231Z" style="fill:white;"/>
            </g>
            <g transform="matrix(1,0,0,1,-167.35037,3.185443)">
                <path d="M295.951,327.268C295.543,327.677 295.051,327.881 294.476,327.881C293.901,327.881 293.41,327.677 293.001,327.268C292.593,326.86 292.389,326.368 292.389,325.793C292.389,325.218 292.593,324.727 293.001,324.318C293.41,323.91 293.897,323.706 294.464,323.706C294.747,323.706 295.018,323.76 295.276,323.868C295.535,323.977 295.756,324.123 295.939,324.306C296.122,324.489 296.272,324.71 296.389,324.968C296.506,325.227 296.564,325.498 296.564,325.781C296.564,326.364 296.36,326.86 295.951,327.268ZM297.189,340.656C297.289,340.839 297.285,341.018 297.176,341.193C297.068,341.368 296.922,341.456 296.739,341.456L292.214,341.456C291.997,341.456 291.839,341.368 291.739,341.193C291.639,341.018 291.639,340.839 291.739,340.656C291.989,340.206 292.131,339.731 292.164,339.231C292.297,337.298 292.364,335.943 292.364,335.168C292.364,334.393 292.297,333.039 292.164,331.106C292.131,330.589 291.989,330.114 291.739,329.681C291.639,329.498 291.639,329.318 291.739,329.143C291.839,328.968 291.997,328.881 292.214,328.881L296.264,328.881C296.414,328.881 296.541,328.939 296.645,329.056C296.749,329.173 296.797,329.306 296.789,329.456C296.556,332.923 296.564,336.181 296.814,339.231C296.814,339.731 296.939,340.206 297.189,340.656Z" style="fill:white;"/>
            </g>
            <g transform="matrix(1,0,0,1,-167.35037,3.185443)">
                <path d="M311.339,339.231C311.339,339.731 311.464,340.206 311.714,340.656C311.814,340.839 311.814,341.018 311.714,341.193C311.614,341.368 311.456,341.456 311.239,341.456L307.436,341.456C307.287,341.456 307.163,341.402 307.063,341.293C306.964,341.185 306.914,341.056 306.914,340.906L306.914,340.531C306.781,340.698 306.643,340.843 306.501,340.968C306.36,341.093 306.206,341.21 306.039,341.318C305.872,341.427 305.685,341.514 305.476,341.581C305.268,341.648 305.047,341.689 304.814,341.706C304.681,341.723 304.547,341.731 304.414,341.731C303.664,341.731 302.951,341.589 302.276,341.306C301.601,341.023 300.989,340.614 300.439,340.081C299.889,339.548 299.447,338.831 299.114,337.931C298.781,337.031 298.614,336.01 298.614,334.868C298.614,333.727 298.776,332.706 299.101,331.806C299.426,330.906 299.86,330.185 300.401,329.643C300.943,329.102 301.543,328.693 302.201,328.418C302.86,328.143 303.556,328.006 304.289,328.006C304.456,328.006 304.622,328.014 304.789,328.031C305.572,328.098 306.281,328.389 306.914,328.906L306.914,328.831C306.914,328.731 306.939,328.639 306.989,328.556C307.038,328.473 307.1,328.406 307.175,328.356C307.25,328.306 307.337,328.281 307.436,328.281L311.239,328.281C311.456,328.281 311.614,328.373 311.714,328.556C311.814,328.739 311.814,328.914 311.714,329.081C311.464,329.531 311.339,330.006 311.339,330.506C311.172,332.439 311.089,333.893 311.089,334.868C311.089,335.843 311.172,337.298 311.339,339.231ZM306.914,336.231L306.914,333.431C306.497,332.331 305.939,331.714 305.239,331.581L304.989,331.581C304.389,331.581 303.868,331.848 303.426,332.381C302.985,332.914 302.764,333.748 302.764,334.881C302.764,337.064 303.514,338.156 305.014,338.156C305.281,338.156 305.543,338.073 305.801,337.906C306.06,337.739 306.285,337.51 306.476,337.218C306.668,336.927 306.814,336.598 306.914,336.231Z" style="fill:white;"/>
            </g>
            <g transform="matrix(1,0,0,1,-167.35037,3.185443)">
                <path d="M325.614,336.331C325.997,337.298 325.906,338.298 325.339,339.331C324.456,340.914 322.372,341.706 319.089,341.706C317.906,341.706 316.814,341.493 315.814,341.068C314.814,340.643 313.964,340.031 313.264,339.231C313.181,339.131 313.139,339.006 313.139,338.856C313.139,338.706 313.197,338.581 313.314,338.481L315.814,336.131C315.914,336.031 316.039,335.981 316.189,335.981C316.472,335.981 316.656,336.114 316.739,336.381C316.872,336.848 317.176,337.235 317.651,337.543C318.126,337.852 318.672,338.056 319.289,338.156C319.639,338.206 320.089,338.193 320.639,338.118C321.189,338.043 321.464,337.923 321.464,337.756C321.464,337.606 321.385,337.456 321.226,337.306C321.068,337.156 320.818,337.014 320.476,336.881C320.135,336.748 319.722,336.648 319.239,336.581L316.489,335.906C315.922,335.806 315.406,335.598 314.939,335.281C314.472,334.964 314.114,334.589 313.864,334.156C313.364,333.323 313.272,332.364 313.589,331.281C313.806,330.564 314.247,329.956 314.914,329.456C315.581,328.956 316.318,328.593 317.126,328.368C317.935,328.143 318.772,328.031 319.639,328.031C320.806,328.031 321.886,328.243 322.88,328.668C323.874,329.093 324.719,329.706 325.415,330.506C325.514,330.606 325.564,330.731 325.564,330.881C325.564,331.031 325.514,331.156 325.414,331.256L322.914,333.606C322.814,333.706 322.689,333.756 322.539,333.756C322.256,333.756 322.072,333.614 321.989,333.331C321.889,332.998 321.722,332.698 321.489,332.431C321.256,332.164 320.972,331.956 320.639,331.806C320.306,331.656 319.956,331.581 319.589,331.581C319.206,331.581 318.868,331.618 318.576,331.693C318.285,331.768 318.072,331.856 317.939,331.956C317.806,332.056 317.739,332.148 317.739,332.231C317.739,332.298 317.776,332.377 317.851,332.468C317.926,332.56 318.072,332.652 318.289,332.743C318.506,332.835 318.772,332.906 319.089,332.956L322.464,333.831C323.231,334.048 323.889,334.377 324.439,334.818C324.989,335.26 325.381,335.764 325.614,336.331Z" style="fill:white;"/>
            </g>
            <g transform="matrix(1,0,0,1,-167.35037,3.185443)">
                <path d="M342.414,328.006C343.147,328.006 343.843,328.143 344.501,328.418C345.16,328.693 345.76,329.102 346.301,329.643C346.843,330.185 347.276,330.906 347.601,331.806C347.926,332.706 348.089,333.731 348.089,334.881C348.089,337.098 347.482,338.831 346.269,340.081C345.206,341.181 343.885,341.731 342.306,341.731C342.174,341.731 342.041,341.723 341.908,341.706C341.143,341.656 340.479,341.306 339.914,340.656L339.914,342.731L340.064,343.981C340.064,344.248 340.181,344.573 340.414,344.956C340.531,345.139 340.535,345.323 340.426,345.506C340.318,345.689 340.164,345.781 339.964,345.781L335.464,345.781C335.247,345.781 335.089,345.689 334.989,345.506C334.889,345.323 334.889,345.139 334.989,344.956C335.239,344.573 335.364,344.256 335.364,344.006L335.464,342.731C335.697,338.931 335.697,335.139 335.464,331.356L335.364,330.056C335.364,329.823 335.239,329.506 334.989,329.106C334.889,328.923 334.889,328.739 334.989,328.556C335.089,328.373 335.247,328.281 335.464,328.281L339.339,328.281C339.489,328.281 339.618,328.335 339.726,328.443C339.835,328.552 339.881,328.681 339.864,328.831L339.864,328.856C340.481,328.373 341.164,328.098 341.914,328.031C342.081,328.014 342.247,328.006 342.414,328.006ZM341.689,338.156C343.189,338.156 343.939,337.064 343.939,334.881C343.939,334.298 343.872,333.785 343.739,333.343C343.606,332.902 343.426,332.556 343.201,332.306C342.976,332.056 342.739,331.873 342.489,331.756C342.239,331.639 341.981,331.581 341.714,331.581L341.464,331.581C340.764,331.714 340.206,332.331 339.789,333.431L339.789,336.256C339.889,336.623 340.035,336.948 340.226,337.231C340.418,337.514 340.643,337.739 340.901,337.906C341.16,338.073 341.422,338.156 341.689,338.156Z" style="fill:white;"/>
            </g>
            <g transform="matrix(1,0,0,1,-167.35037,3.185443)">
                <path d="M362.114,339.231C362.114,339.731 362.239,340.206 362.489,340.656C362.589,340.839 362.589,341.018 362.489,341.193C362.389,341.368 362.231,341.456 362.014,341.456L358.211,341.456C358.062,341.456 357.938,341.402 357.838,341.293C357.739,341.185 357.689,341.056 357.689,340.906L357.689,340.531C357.556,340.698 357.418,340.843 357.276,340.968C357.135,341.093 356.981,341.21 356.814,341.318C356.647,341.427 356.46,341.514 356.251,341.581C356.043,341.648 355.822,341.689 355.589,341.706C355.456,341.723 355.322,341.731 355.189,341.731C354.439,341.731 353.726,341.589 353.051,341.306C352.376,341.023 351.764,340.614 351.214,340.081C350.664,339.548 350.222,338.831 349.889,337.931C349.556,337.031 349.389,336.01 349.389,334.868C349.389,333.727 349.551,332.706 349.876,331.806C350.201,330.906 350.635,330.185 351.176,329.643C351.718,329.102 352.318,328.693 352.976,328.418C353.635,328.143 354.331,328.006 355.064,328.006C355.231,328.006 355.397,328.014 355.564,328.031C356.347,328.098 357.056,328.389 357.689,328.906L357.689,328.831C357.689,328.731 357.714,328.639 357.764,328.556C357.813,328.473 357.875,328.406 357.95,328.356C358.025,328.306 358.112,328.281 358.211,328.281L362.014,328.281C362.231,328.281 362.389,328.373 362.489,328.556C362.589,328.739 362.589,328.914 362.489,329.081C362.239,329.531 362.114,330.006 362.114,330.506C361.947,332.439 361.864,333.893 361.864,334.868C361.864,335.843 361.947,337.298 362.114,339.231ZM357.689,336.231L357.689,333.431C357.272,332.331 356.714,331.714 356.014,331.581L355.764,331.581C355.164,331.581 354.643,331.848 354.201,332.381C353.76,332.914 353.539,333.748 353.539,334.881C353.539,337.064 354.289,338.156 355.789,338.156C356.056,338.156 356.318,338.073 356.576,337.906C356.835,337.739 357.06,337.51 357.251,337.218C357.443,336.927 357.589,336.598 357.689,336.231Z" style="fill:white;"/>
            </g>
            <g transform="matrix(1,0,0,1,-167.35037,3.185443)">
                <path d="M375.189,329.606C375.306,329.723 375.306,329.848 375.189,329.981L372.614,332.556C372.547,332.623 372.468,332.648 372.376,332.631C372.285,332.614 372.214,332.564 372.164,332.481C371.814,331.748 371.364,331.448 370.814,331.581C370.047,331.714 369.447,332.439 369.014,333.756L369.014,334.881C369.014,336.781 369.089,338.231 369.239,339.231C369.239,339.731 369.364,340.206 369.614,340.656C369.714,340.839 369.71,341.018 369.601,341.193C369.493,341.368 369.34,341.456 369.142,341.456L364.639,341.456C364.422,341.456 364.264,341.368 364.164,341.193C364.064,341.018 364.064,340.839 364.164,340.656C364.414,340.206 364.556,339.731 364.589,339.231C364.722,337.298 364.789,335.843 364.789,334.868C364.789,333.893 364.722,332.439 364.589,330.506C364.556,330.006 364.414,329.531 364.164,329.081C364.064,328.914 364.064,328.739 364.164,328.556C364.264,328.373 364.422,328.281 364.639,328.281L368.464,328.281C368.597,328.281 368.718,328.335 368.826,328.443C368.935,328.552 368.989,328.681 368.989,328.831L368.989,329.006C369.656,328.423 370.406,328.098 371.239,328.031C371.406,328.014 371.572,328.006 371.739,328.006C373.056,328.006 374.206,328.539 375.189,329.606Z" style="fill:white;"/>
            </g>
            <g transform="matrix(1,0,0,1,-167.35037,3.185443)">
                <path d="M388.164,339.231C388.164,339.731 388.289,340.206 388.539,340.656C388.639,340.839 388.639,341.018 388.539,341.193C388.439,341.368 388.281,341.456 388.064,341.456L384.261,341.456C384.112,341.456 383.988,341.402 383.888,341.293C383.789,341.185 383.739,341.056 383.739,340.906L383.739,340.531C383.606,340.698 383.468,340.843 383.326,340.968C383.185,341.093 383.031,341.21 382.864,341.318C382.697,341.427 382.51,341.514 382.301,341.581C382.093,341.648 381.872,341.689 381.639,341.706C381.506,341.723 381.372,341.731 381.239,341.731C380.489,341.731 379.776,341.589 379.101,341.306C378.426,341.023 377.814,340.614 377.264,340.081C376.714,339.548 376.272,338.831 375.939,337.931C375.606,337.031 375.439,336.01 375.439,334.868C375.439,333.727 375.601,332.706 375.926,331.806C376.251,330.906 376.685,330.185 377.226,329.643C377.768,329.102 378.368,328.693 379.026,328.418C379.685,328.143 380.381,328.006 381.114,328.006C381.281,328.006 381.447,328.014 381.614,328.031C382.397,328.098 383.106,328.389 383.739,328.906L383.739,328.831C383.739,328.731 383.764,328.639 383.814,328.556C383.863,328.473 383.925,328.406 384,328.356C384.075,328.306 384.162,328.281 384.261,328.281L388.064,328.281C388.281,328.281 388.439,328.373 388.539,328.556C388.639,328.739 388.639,328.914 388.539,329.081C388.289,329.531 388.164,330.006 388.164,330.506C387.997,332.439 387.914,333.893 387.914,334.868C387.914,335.843 387.997,337.298 388.164,339.231ZM383.739,336.231L383.739,333.431C383.322,332.331 382.764,331.714 382.064,331.581L381.814,331.581C381.214,331.581 380.693,331.848 380.251,332.381C379.81,332.914 379.589,333.748 379.589,334.881C379.589,337.064 380.339,338.156 381.839,338.156C382.106,338.156 382.368,338.073 382.626,337.906C382.885,337.739 383.11,337.51 383.301,337.218C383.493,336.927 383.639,336.598 383.739,336.231Z" style="fill:white;"/>
            </g>
            <g transform="matrix(1,0,0,1,-230.716379,32.618776)">
                <path d="M274.664,339.681C274.664,339.931 274.781,340.248 275.014,340.631C275.114,340.814 275.114,340.998 275.014,341.181C274.914,341.364 274.756,341.456 274.54,341.456L270.686,341.456C270.537,341.456 270.408,341.402 270.301,341.293C270.193,341.185 270.147,341.056 270.164,340.906L270.164,340.656C269.581,341.339 268.914,341.681 268.164,341.681C268.031,341.714 267.897,341.731 267.764,341.731C267.014,341.731 266.301,341.589 265.626,341.306C264.951,341.023 264.339,340.614 263.789,340.081C263.239,339.548 262.797,338.831 262.464,337.931C262.131,337.031 261.964,336.01 261.964,334.868C261.964,333.727 262.125,332.706 262.448,331.806C262.771,330.906 263.202,330.185 263.74,329.643C264.279,329.102 264.875,328.693 265.529,328.418C266.184,328.143 266.875,328.006 267.604,328.006C267.77,328.006 267.935,328.014 268.101,328.031C268.83,328.098 269.493,328.364 270.089,328.831L270.089,327.006L269.939,325.781C269.939,325.498 269.822,325.164 269.589,324.781C269.472,324.598 269.468,324.414 269.576,324.231C269.685,324.048 269.839,323.956 270.039,323.956L274.54,323.956C274.756,323.956 274.914,324.048 275.014,324.231C275.114,324.414 275.114,324.598 275.014,324.781C274.781,325.164 274.664,325.481 274.664,325.731L274.564,327.006C274.447,328.906 274.389,330.806 274.389,332.706C274.389,334.606 274.447,336.506 274.564,338.406L274.664,339.681ZM270.239,336.306L270.239,333.381C269.822,332.314 269.272,331.714 268.589,331.581L268.339,331.581C267.739,331.581 267.218,331.848 266.776,332.381C266.335,332.914 266.114,333.748 266.114,334.881C266.114,337.064 266.864,338.156 268.364,338.156C268.764,338.156 269.139,337.981 269.489,337.631C269.839,337.281 270.089,336.839 270.239,336.306Z" style="fill:white;"/>
            </g>
            <g transform="matrix(1,0,0,1,-230.716379,32.618776)">
                <path d="M283.014,328.031C283.564,328.031 284.093,328.085 284.601,328.193C285.11,328.302 285.614,328.464 286.114,328.681C286.614,328.898 287.072,329.189 287.489,329.556C287.906,329.923 288.268,330.352 288.576,330.843C288.885,331.335 289.131,331.927 289.314,332.618C289.497,333.31 289.589,334.064 289.589,334.881C289.589,336.081 289.397,337.139 289.014,338.056C288.631,338.973 288.118,339.685 287.476,340.193C286.835,340.702 286.139,341.081 285.389,341.331C284.639,341.581 283.847,341.706 283.014,341.706C282.181,341.706 281.389,341.581 280.639,341.331C279.889,341.081 279.193,340.702 278.551,340.193C277.91,339.685 277.397,338.973 277.014,338.056C276.631,337.139 276.439,336.077 276.439,334.868C276.439,333.66 276.631,332.598 277.014,331.681C277.397,330.764 277.91,330.052 278.551,329.543C279.193,329.035 279.889,328.656 280.639,328.406C281.389,328.156 282.181,328.031 283.014,328.031ZM281.201,337.318C281.61,337.877 282.21,338.156 283.001,338.156C283.793,338.156 284.393,337.877 284.801,337.318C285.21,336.76 285.414,335.943 285.414,334.868C285.414,333.793 285.21,332.977 284.801,332.418C284.393,331.86 283.793,331.581 283.001,331.581C282.21,331.581 281.61,331.86 281.201,332.418C280.793,332.977 280.589,333.793 280.589,334.868C280.589,335.943 280.793,336.76 281.201,337.318Z" style="fill:white;"/>
            </g>
            <g transform="matrix(1,0,0,1,-230.716379,32.618776)">
                <path d="M303.514,338.506C303.614,338.606 303.664,338.727 303.664,338.868C303.664,339.01 303.622,339.131 303.539,339.231C302.874,340.031 302.067,340.643 301.119,341.068C300.171,341.493 299.148,341.706 298.05,341.706C295.754,341.706 293.974,341.11 292.71,339.918C291.446,338.727 290.814,337.048 290.814,334.881C290.814,334.064 290.909,333.31 291.101,332.618C291.292,331.927 291.562,331.335 291.912,330.843C292.261,330.352 292.66,329.923 293.109,329.556C293.558,329.189 294.049,328.898 294.581,328.681C295.114,328.464 295.65,328.302 296.191,328.193C296.731,328.085 297.284,328.031 297.85,328.031C298.964,328.031 299.992,328.243 300.931,328.668C301.871,329.093 302.674,329.706 303.339,330.506C303.422,330.623 303.464,330.748 303.464,330.881C303.464,331.014 303.414,331.131 303.314,331.231L300.964,333.606C300.864,333.706 300.739,333.756 300.589,333.756C300.306,333.756 300.131,333.623 300.064,333.356C299.931,332.839 299.66,332.414 299.251,332.081C298.843,331.748 298.372,331.581 297.839,331.581C297.056,331.581 296.381,331.885 295.814,332.493C295.247,333.102 294.964,333.898 294.964,334.881C294.964,337.064 295.997,338.156 298.064,338.156C298.564,338.156 299.018,337.989 299.426,337.656C299.835,337.323 300.114,336.898 300.264,336.381C300.331,336.114 300.506,335.981 300.789,335.981C300.922,335.981 301.047,336.031 301.164,336.131L303.514,338.506Z" style="fill:white;"/>
            </g>
            <g transform="matrix(1,0,0,1,-230.716379,32.618776)">
                <path d="M317.639,338.506C317.739,338.606 317.789,338.727 317.789,338.868C317.789,339.01 317.739,339.131 317.639,339.231C316.99,340.031 316.192,340.643 315.244,341.068C314.295,341.493 313.264,341.706 312.15,341.706C309.821,341.706 307.995,341.102 306.672,339.893C305.35,338.685 304.689,337.014 304.689,334.881C304.689,333.731 304.897,332.71 305.314,331.818C305.731,330.927 306.289,330.21 306.989,329.668C307.689,329.127 308.46,328.718 309.301,328.443C310.143,328.168 311.039,328.031 311.989,328.031C312.722,328.031 313.485,328.206 314.276,328.556C315.068,328.906 315.731,329.456 316.264,330.206C317.047,331.256 317.239,332.339 316.839,333.456C316.656,334.006 316.339,334.481 315.889,334.881C315.439,335.281 314.906,335.564 314.289,335.731C313.056,336.064 311.847,336.231 310.664,336.231C310.131,336.231 309.572,336.206 308.989,336.156C309.356,337.489 310.414,338.156 312.164,338.156C312.514,338.156 312.839,338.081 313.139,337.931C313.439,337.781 313.697,337.573 313.914,337.306C314.131,337.039 314.281,336.731 314.364,336.381C314.447,336.114 314.622,335.981 314.889,335.981C315.039,335.981 315.172,336.031 315.289,336.131L317.639,338.506ZM311.839,331.606C311.689,331.606 311.526,331.627 311.351,331.668C311.176,331.709 310.943,331.783 310.651,331.89C310.36,331.997 310.076,332.194 309.801,332.482C309.526,332.77 309.314,333.128 309.164,333.556C309.397,333.573 309.631,333.581 309.864,333.581C310.814,333.581 311.589,333.481 312.189,333.281C312.789,333.081 313.089,332.823 313.089,332.506C313.106,332.289 313.065,332.114 312.967,331.981C312.804,331.748 312.469,331.631 311.964,331.631C311.931,331.614 311.889,331.606 311.839,331.606Z" style="fill:white;"/>
            </g>
            <g transform="matrix(1,0,0,1,-230.716379,32.618776)">
                <path d="M332.139,340.656C332.239,340.839 332.239,341.018 332.139,341.193C332.039,341.368 331.889,341.456 331.69,341.456L327.214,341.456C326.997,341.456 326.839,341.364 326.739,341.181C326.639,340.998 326.639,340.814 326.739,340.631C326.939,340.298 327.072,339.973 327.139,339.656C327.289,338.739 327.364,337.481 327.364,335.881L327.364,334.856C327.364,333.806 327.241,332.998 326.994,332.431C326.748,331.864 326.387,331.581 325.911,331.581L325.689,331.581C324.933,331.714 324.341,332.439 323.914,333.756L323.914,334.881C323.914,336.798 323.989,338.248 324.139,339.231C324.139,339.748 324.264,340.223 324.514,340.656C324.614,340.839 324.61,341.018 324.501,341.193C324.393,341.368 324.24,341.456 324.042,341.456L319.539,341.456C319.322,341.456 319.164,341.368 319.064,341.193C318.964,341.018 318.964,340.839 319.064,340.656C319.314,340.223 319.456,339.748 319.489,339.231C319.622,337.298 319.689,335.843 319.689,334.868C319.689,333.893 319.622,332.439 319.489,330.506C319.456,330.006 319.314,329.531 319.064,329.081C318.964,328.914 318.964,328.739 319.064,328.556C319.164,328.373 319.322,328.281 319.539,328.281L323.364,328.281C323.497,328.281 323.618,328.335 323.726,328.443C323.835,328.552 323.889,328.681 323.889,328.831L323.889,329.006C324.539,328.423 325.281,328.098 326.114,328.031C326.297,328.014 326.464,328.006 326.614,328.006C328.164,328.006 329.376,328.614 330.251,329.831C331.126,331.048 331.564,332.731 331.564,334.881C331.581,336.181 331.622,337.356 331.689,338.406L331.764,339.231C331.764,339.731 331.889,340.206 332.139,340.656Z" style="fill:white;"/>
            </g>
            <g transform="matrix(1,0,0,1,-230.716379,32.618776)">
                <path d="M340.414,338.131C340.547,338.148 340.664,338.21 340.764,338.318C340.864,338.427 340.914,338.548 340.914,338.681L340.914,341.156C340.914,341.306 340.86,341.435 340.751,341.543C340.643,341.652 340.514,341.706 340.364,341.706C339.747,341.706 339.172,341.627 338.639,341.468C338.106,341.309 337.56,341.021 337.001,340.603C336.443,340.185 335.968,339.655 335.576,339.012C335.185,338.368 334.864,337.508 334.614,336.43C334.364,335.353 334.239,334.112 334.239,332.709L334.239,331.681C334.122,331.698 333.964,331.718 333.764,331.743C333.564,331.768 333.431,331.789 333.364,331.806C333.214,331.806 333.085,331.752 332.976,331.643C332.868,331.535 332.814,331.406 332.814,331.256L332.814,328.881C332.814,328.731 332.868,328.602 332.976,328.493C333.085,328.385 333.214,328.331 333.364,328.331C333.43,328.348 333.55,328.368 333.724,328.393C333.899,328.418 334.036,328.431 334.135,328.431C334.086,327.514 334.061,327.039 334.061,327.006L333.986,325.731C333.969,325.481 333.837,325.164 333.588,324.781C333.488,324.598 333.488,324.414 333.588,324.231C333.687,324.048 333.845,323.956 334.061,323.956L338.564,323.956C338.764,323.956 338.918,324.043 339.026,324.218C339.135,324.393 339.131,324.573 339.014,324.756C338.781,325.189 338.664,325.664 338.664,326.181L338.539,327.006L338.539,328.406C338.571,328.406 338.616,328.402 338.673,328.393C338.73,328.385 338.779,328.377 338.82,328.368C338.861,328.36 338.905,328.356 338.954,328.356C339.003,328.356 339.044,328.348 339.076,328.331C339.223,328.331 339.349,328.385 339.455,328.493C339.561,328.602 339.614,328.731 339.614,328.881L339.614,331.256C339.614,331.406 339.56,331.535 339.451,331.643C339.343,331.752 339.214,331.806 339.064,331.806C338.997,331.789 338.889,331.773 338.739,331.756C338.589,331.739 338.481,331.731 338.414,331.731C338.414,331.798 338.41,331.948 338.401,332.181C338.393,332.414 338.389,332.589 338.389,332.706C338.389,334.123 338.476,335.235 338.651,336.043C338.826,336.852 339.051,337.393 339.326,337.668C339.601,337.943 339.964,338.098 340.414,338.131Z" style="fill:white;"/>
            </g>
            <g transform="matrix(1,0,0,1,-230.716379,32.618776)">
                <path d="M354.739,338.506C354.839,338.606 354.889,338.727 354.889,338.868C354.889,339.01 354.839,339.131 354.739,339.231C354.09,340.031 353.292,340.643 352.344,341.068C351.395,341.493 350.364,341.706 349.25,341.706C346.921,341.706 345.095,341.102 343.772,339.893C342.45,338.685 341.789,337.014 341.789,334.881C341.789,333.731 341.997,332.71 342.414,331.818C342.831,330.927 343.389,330.21 344.089,329.668C344.789,329.127 345.56,328.718 346.401,328.443C347.243,328.168 348.139,328.031 349.089,328.031C349.822,328.031 350.585,328.206 351.376,328.556C352.168,328.906 352.831,329.456 353.364,330.206C354.147,331.256 354.339,332.339 353.939,333.456C353.756,334.006 353.439,334.481 352.989,334.881C352.539,335.281 352.006,335.564 351.389,335.731C350.156,336.064 348.947,336.231 347.764,336.231C347.231,336.231 346.672,336.206 346.089,336.156C346.456,337.489 347.514,338.156 349.264,338.156C349.614,338.156 349.939,338.081 350.239,337.931C350.539,337.781 350.797,337.573 351.014,337.306C351.231,337.039 351.381,336.731 351.464,336.381C351.547,336.114 351.722,335.981 351.989,335.981C352.139,335.981 352.272,336.031 352.389,336.131L354.739,338.506ZM348.939,331.606C348.789,331.606 348.626,331.627 348.451,331.668C348.276,331.709 348.043,331.783 347.751,331.89C347.46,331.997 347.176,332.194 346.901,332.482C346.626,332.77 346.414,333.128 346.264,333.556C346.497,333.573 346.731,333.581 346.964,333.581C347.914,333.581 348.689,333.481 349.289,333.281C349.889,333.081 350.189,332.823 350.189,332.506C350.206,332.289 350.165,332.114 350.067,331.981C349.904,331.748 349.569,331.631 349.064,331.631C349.031,331.614 348.989,331.606 348.939,331.606Z" style="fill:white;"/>
            </g>
            <g transform="matrix(1,0,0,1,-230.716379,32.618776)">
                <path d="M368.389,336.331C368.772,337.298 368.681,338.298 368.114,339.331C367.231,340.914 365.147,341.706 361.864,341.706C360.681,341.706 359.589,341.493 358.589,341.068C357.589,340.643 356.739,340.031 356.039,339.231C355.956,339.131 355.914,339.006 355.914,338.856C355.914,338.706 355.972,338.581 356.089,338.481L358.589,336.131C358.689,336.031 358.814,335.981 358.964,335.981C359.247,335.981 359.431,336.114 359.514,336.381C359.647,336.848 359.951,337.235 360.426,337.543C360.901,337.852 361.447,338.056 362.064,338.156C362.414,338.206 362.864,338.193 363.414,338.118C363.964,338.043 364.239,337.923 364.239,337.756C364.239,337.606 364.16,337.456 364.001,337.306C363.843,337.156 363.593,337.014 363.251,336.881C362.91,336.748 362.497,336.648 362.014,336.581L359.264,335.906C358.697,335.806 358.181,335.598 357.714,335.281C357.247,334.964 356.889,334.589 356.639,334.156C356.139,333.323 356.047,332.364 356.364,331.281C356.581,330.564 357.022,329.956 357.689,329.456C358.356,328.956 359.093,328.593 359.901,328.368C360.71,328.143 361.547,328.031 362.414,328.031C363.581,328.031 364.661,328.243 365.655,328.668C366.649,329.093 367.494,329.706 368.19,330.506C368.289,330.606 368.339,330.731 368.339,330.881C368.339,331.031 368.289,331.156 368.189,331.256L365.689,333.606C365.589,333.706 365.464,333.756 365.314,333.756C365.031,333.756 364.847,333.614 364.764,333.331C364.664,332.998 364.497,332.698 364.264,332.431C364.031,332.164 363.747,331.956 363.414,331.806C363.081,331.656 362.731,331.581 362.364,331.581C361.981,331.581 361.643,331.618 361.351,331.693C361.06,331.768 360.847,331.856 360.714,331.956C360.581,332.056 360.514,332.148 360.514,332.231C360.514,332.298 360.551,332.377 360.626,332.468C360.701,332.56 360.847,332.652 361.064,332.743C361.281,332.835 361.547,332.906 361.864,332.956L365.239,333.831C366.006,334.048 366.664,334.377 367.214,334.818C367.764,335.26 368.156,335.764 368.389,336.331Z" style="fill:white;"/>
            </g>
            <g transform="matrix(1,0,0,1,-230.716379,32.618776)">
                <path d="M381.839,324.381C381.939,324.581 381.889,324.773 381.689,324.956C381.256,325.423 380.914,325.914 380.664,326.431L380.264,327.256C378.447,331.056 376.872,334.856 375.539,338.656L375.239,339.506C375.072,340.006 375.022,340.473 375.089,340.906C375.106,341.056 375.056,341.206 374.939,341.356C374.789,341.523 374.614,341.606 374.414,341.606L369.889,341.606C369.689,341.606 369.547,341.514 369.464,341.331C369.381,341.131 369.439,340.931 369.639,340.731C370.056,340.331 370.331,339.998 370.464,339.731L371.064,338.456C372.881,334.656 374.456,330.856 375.789,327.056L376.214,325.806C376.314,325.539 376.322,325.223 376.239,324.856C376.206,324.689 376.256,324.531 376.389,324.381C376.522,324.198 376.697,324.106 376.914,324.106L381.439,324.106C381.639,324.106 381.772,324.198 381.839,324.381Z" style="fill:white;"/>
            </g>
            <g transform="matrix(1,0,0,1,-230.716379,32.618776)">
                <path d="M396.439,338.506C396.539,338.606 396.589,338.727 396.589,338.868C396.589,339.01 396.547,339.131 396.464,339.231C395.799,340.031 394.992,340.643 394.044,341.068C393.096,341.493 392.073,341.706 390.975,341.706C388.679,341.706 386.899,341.11 385.635,339.918C384.371,338.727 383.739,337.048 383.739,334.881C383.739,334.064 383.834,333.31 384.026,332.618C384.217,331.927 384.487,331.335 384.837,330.843C385.186,330.352 385.585,329.923 386.034,329.556C386.483,329.189 386.974,328.898 387.506,328.681C388.039,328.464 388.575,328.302 389.116,328.193C389.656,328.085 390.209,328.031 390.775,328.031C391.889,328.031 392.917,328.243 393.856,328.668C394.796,329.093 395.599,329.706 396.264,330.506C396.347,330.623 396.389,330.748 396.389,330.881C396.389,331.014 396.339,331.131 396.239,331.231L393.889,333.606C393.789,333.706 393.664,333.756 393.514,333.756C393.231,333.756 393.056,333.623 392.989,333.356C392.856,332.839 392.585,332.414 392.176,332.081C391.768,331.748 391.297,331.581 390.764,331.581C389.981,331.581 389.306,331.885 388.739,332.493C388.172,333.102 387.889,333.898 387.889,334.881C387.889,337.064 388.922,338.156 390.989,338.156C391.489,338.156 391.943,337.989 392.351,337.656C392.76,337.323 393.039,336.898 393.189,336.381C393.256,336.114 393.431,335.981 393.714,335.981C393.847,335.981 393.972,336.031 394.089,336.131L396.439,338.506Z" style="fill:white;"/>
            </g>
            <g transform="matrix(1,0,0,1,-230.716379,32.618776)">
                <path d="M410.339,339.231C410.339,339.731 410.464,340.206 410.714,340.656C410.814,340.839 410.814,341.018 410.714,341.193C410.614,341.368 410.464,341.456 410.264,341.456L406.461,341.456C406.312,341.456 406.183,341.402 406.075,341.293C405.968,341.185 405.914,341.056 405.914,340.906L405.914,340.731C405.259,341.314 404.512,341.639 403.673,341.706C403.505,341.723 403.337,341.731 403.169,341.731C401.616,341.731 400.406,341.123 399.539,339.906C398.672,338.689 398.239,337.014 398.239,334.881C398.206,333.548 398.156,332.373 398.089,331.356L398.039,330.506C398.006,330.006 397.864,329.531 397.614,329.081C397.514,328.914 397.514,328.739 397.614,328.556C397.714,328.373 397.872,328.281 398.089,328.281L402.615,328.281C402.817,328.281 402.972,328.373 403.081,328.556C403.19,328.739 403.186,328.923 403.069,329.106C402.867,329.439 402.741,329.764 402.691,330.081C402.523,330.998 402.439,332.256 402.439,333.856L402.439,334.881C402.439,336.098 402.603,336.989 402.93,337.556C403.176,337.973 403.496,338.181 403.889,338.181C403.971,338.181 404.045,338.173 404.111,338.156C404.868,338.023 405.461,337.298 405.889,335.981L405.889,334.881C405.889,332.964 405.814,331.506 405.664,330.506C405.664,330.006 405.539,329.531 405.289,329.081C405.189,328.914 405.189,328.739 405.289,328.556C405.389,328.373 405.539,328.281 405.739,328.281L410.264,328.281C410.464,328.281 410.614,328.373 410.714,328.556C410.814,328.739 410.814,328.914 410.714,329.081C410.464,329.531 410.339,330.006 410.339,330.506C410.189,332.439 410.114,333.893 410.114,334.868C410.114,335.843 410.189,337.298 410.339,339.231Z" style="fill:white;"/>
            </g>
            <g transform="matrix(1,0,0,1,-230.716379,32.618776)">
                <path d="M416.601,327.268C416.193,327.677 415.701,327.881 415.126,327.881C414.551,327.881 414.06,327.677 413.651,327.268C413.243,326.86 413.039,326.368 413.039,325.793C413.039,325.218 413.243,324.727 413.651,324.318C414.06,323.91 414.547,323.706 415.114,323.706C415.397,323.706 415.668,323.76 415.926,323.868C416.185,323.977 416.406,324.123 416.589,324.306C416.772,324.489 416.922,324.71 417.039,324.968C417.156,325.227 417.214,325.498 417.214,325.781C417.214,326.364 417.01,326.86 416.601,327.268ZM417.839,340.656C417.939,340.839 417.935,341.018 417.826,341.193C417.718,341.368 417.572,341.456 417.389,341.456L412.864,341.456C412.647,341.456 412.489,341.368 412.389,341.193C412.289,341.018 412.289,340.839 412.389,340.656C412.639,340.206 412.781,339.731 412.814,339.231C412.947,337.298 413.014,335.943 413.014,335.168C413.014,334.393 412.947,333.039 412.814,331.106C412.781,330.589 412.639,330.114 412.389,329.681C412.289,329.498 412.289,329.318 412.389,329.143C412.489,328.968 412.647,328.881 412.864,328.881L416.914,328.881C417.064,328.881 417.191,328.939 417.295,329.056C417.399,329.173 417.447,329.306 417.439,329.456C417.206,332.923 417.214,336.181 417.464,339.231C417.464,339.731 417.589,340.206 417.839,340.656Z" style="fill:white;"/>
            </g>
            <g transform="matrix(1,0,0,1,-230.716379,32.618776)">
                <path d="M431.964,339.681C431.964,339.931 432.081,340.248 432.314,340.631C432.414,340.814 432.414,340.998 432.314,341.181C432.214,341.364 432.056,341.456 431.84,341.456L427.986,341.456C427.837,341.456 427.708,341.402 427.601,341.293C427.493,341.185 427.447,341.056 427.464,340.906L427.464,340.656C426.881,341.339 426.214,341.681 425.464,341.681C425.331,341.714 425.197,341.731 425.064,341.731C424.314,341.731 423.601,341.589 422.926,341.306C422.251,341.023 421.639,340.614 421.089,340.081C420.539,339.548 420.097,338.831 419.764,337.931C419.431,337.031 419.264,336.01 419.264,334.868C419.264,333.727 419.425,332.706 419.748,331.806C420.071,330.906 420.502,330.185 421.04,329.643C421.579,329.102 422.175,328.693 422.829,328.418C423.484,328.143 424.175,328.006 424.904,328.006C425.07,328.006 425.235,328.014 425.401,328.031C426.13,328.098 426.793,328.364 427.389,328.831L427.389,327.006L427.239,325.781C427.239,325.498 427.122,325.164 426.889,324.781C426.772,324.598 426.768,324.414 426.876,324.231C426.985,324.048 427.139,323.956 427.339,323.956L431.84,323.956C432.056,323.956 432.214,324.048 432.314,324.231C432.414,324.414 432.414,324.598 432.314,324.781C432.081,325.164 431.964,325.481 431.964,325.731L431.864,327.006C431.747,328.906 431.689,330.806 431.689,332.706C431.689,334.606 431.747,336.506 431.864,338.406L431.964,339.681ZM427.539,336.306L427.539,333.381C427.122,332.314 426.572,331.714 425.889,331.581L425.639,331.581C425.039,331.581 424.518,331.848 424.076,332.381C423.635,332.914 423.414,333.748 423.414,334.881C423.414,337.064 424.164,338.156 425.664,338.156C426.064,338.156 426.439,337.981 426.789,337.631C427.139,337.281 427.389,336.839 427.539,336.306Z" style="fill:white;"/>
            </g>
            <g transform="matrix(1,0,0,1,-230.716379,32.618776)">
                <path d="M446.489,339.231C446.489,339.731 446.614,340.206 446.864,340.656C446.964,340.839 446.964,341.018 446.864,341.193C446.764,341.368 446.606,341.456 446.389,341.456L442.586,341.456C442.437,341.456 442.313,341.402 442.213,341.293C442.114,341.185 442.064,341.056 442.064,340.906L442.064,340.531C441.931,340.698 441.793,340.843 441.651,340.968C441.51,341.093 441.356,341.21 441.189,341.318C441.022,341.427 440.835,341.514 440.626,341.581C440.418,341.648 440.197,341.689 439.964,341.706C439.831,341.723 439.697,341.731 439.564,341.731C438.814,341.731 438.101,341.589 437.426,341.306C436.751,341.023 436.139,340.614 435.589,340.081C435.039,339.548 434.597,338.831 434.264,337.931C433.931,337.031 433.764,336.01 433.764,334.868C433.764,333.727 433.926,332.706 434.251,331.806C434.576,330.906 435.01,330.185 435.551,329.643C436.093,329.102 436.693,328.693 437.351,328.418C438.01,328.143 438.706,328.006 439.439,328.006C439.606,328.006 439.772,328.014 439.939,328.031C440.722,328.098 441.431,328.389 442.064,328.906L442.064,328.831C442.064,328.731 442.089,328.639 442.139,328.556C442.188,328.473 442.25,328.406 442.325,328.356C442.4,328.306 442.487,328.281 442.586,328.281L446.389,328.281C446.606,328.281 446.764,328.373 446.864,328.556C446.964,328.739 446.964,328.914 446.864,329.081C446.614,329.531 446.489,330.006 446.489,330.506C446.322,332.439 446.239,333.893 446.239,334.868C446.239,335.843 446.322,337.298 446.489,339.231ZM442.064,336.231L442.064,333.431C441.647,332.331 441.089,331.714 440.389,331.581L440.139,331.581C439.539,331.581 439.018,331.848 438.576,332.381C438.135,332.914 437.914,333.748 437.914,334.881C437.914,337.064 438.664,338.156 440.164,338.156C440.431,338.156 440.693,338.073 440.951,337.906C441.21,337.739 441.435,337.51 441.626,337.218C441.818,336.927 441.964,336.598 442.064,336.231Z" style="fill:white;"/>
            </g>
            <g transform="matrix(1,0,0,1,-230.716379,32.618776)">
                <path d="M461.064,339.681C461.064,339.931 461.181,340.248 461.414,340.631C461.514,340.814 461.514,340.998 461.414,341.181C461.314,341.364 461.156,341.456 460.94,341.456L457.086,341.456C456.937,341.456 456.808,341.402 456.701,341.293C456.593,341.185 456.547,341.056 456.564,340.906L456.564,340.656C455.981,341.339 455.314,341.681 454.564,341.681C454.431,341.714 454.297,341.731 454.164,341.731C453.414,341.731 452.701,341.589 452.026,341.306C451.351,341.023 450.739,340.614 450.189,340.081C449.639,339.548 449.197,338.831 448.864,337.931C448.531,337.031 448.364,336.01 448.364,334.868C448.364,333.727 448.525,332.706 448.848,331.806C449.171,330.906 449.602,330.185 450.14,329.643C450.679,329.102 451.275,328.693 451.929,328.418C452.584,328.143 453.275,328.006 454.004,328.006C454.17,328.006 454.335,328.014 454.501,328.031C455.23,328.098 455.893,328.364 456.489,328.831L456.489,327.006L456.339,325.781C456.339,325.498 456.222,325.164 455.989,324.781C455.872,324.598 455.868,324.414 455.976,324.231C456.085,324.048 456.239,323.956 456.439,323.956L460.94,323.956C461.156,323.956 461.314,324.048 461.414,324.231C461.514,324.414 461.514,324.598 461.414,324.781C461.181,325.164 461.064,325.481 461.064,325.731L460.964,327.006C460.847,328.906 460.789,330.806 460.789,332.706C460.789,334.606 460.847,336.506 460.964,338.406L461.064,339.681ZM456.639,336.306L456.639,333.381C456.222,332.314 455.672,331.714 454.989,331.581L454.739,331.581C454.139,331.581 453.618,331.848 453.176,332.381C452.735,332.914 452.514,333.748 452.514,334.881C452.514,337.064 453.264,338.156 454.764,338.156C455.164,338.156 455.539,337.981 455.889,337.631C456.239,337.281 456.489,336.839 456.639,336.306Z" style="fill:white;"/>
            </g>
            <g transform="matrix(1,0,0,1,-230.716379,32.618776)">
                <path d="M469.414,328.031C469.964,328.031 470.493,328.085 471.001,328.193C471.51,328.302 472.014,328.464 472.514,328.681C473.014,328.898 473.472,329.189 473.889,329.556C474.306,329.923 474.668,330.352 474.976,330.843C475.285,331.335 475.531,331.927 475.714,332.618C475.897,333.31 475.989,334.064 475.989,334.881C475.989,336.081 475.797,337.139 475.414,338.056C475.031,338.973 474.518,339.685 473.876,340.193C473.235,340.702 472.539,341.081 471.789,341.331C471.039,341.581 470.247,341.706 469.414,341.706C468.581,341.706 467.789,341.581 467.039,341.331C466.289,341.081 465.593,340.702 464.951,340.193C464.31,339.685 463.797,338.973 463.414,338.056C463.031,337.139 462.839,336.077 462.839,334.868C462.839,333.66 463.031,332.598 463.414,331.681C463.797,330.764 464.31,330.052 464.951,329.543C465.593,329.035 466.289,328.656 467.039,328.406C467.789,328.156 468.581,328.031 469.414,328.031ZM467.601,337.318C468.01,337.877 468.61,338.156 469.401,338.156C470.193,338.156 470.793,337.877 471.201,337.318C471.61,336.76 471.814,335.943 471.814,334.868C471.814,333.793 471.61,332.977 471.201,332.418C470.793,331.86 470.193,331.581 469.401,331.581C468.61,331.581 468.01,331.86 467.601,332.418C467.193,332.977 466.989,333.793 466.989,334.868C466.989,335.943 467.193,336.76 467.601,337.318Z" style="fill:white;"/>
            </g>
            <g transform="matrix(1,0,0,1,-230.716379,32.618776)">
                <path d="M488.464,329.606C488.581,329.723 488.581,329.848 488.464,329.981L485.889,332.556C485.822,332.623 485.743,332.648 485.651,332.631C485.56,332.614 485.489,332.564 485.439,332.481C485.089,331.748 484.639,331.448 484.089,331.581C483.322,331.714 482.722,332.439 482.289,333.756L482.289,334.881C482.289,336.781 482.364,338.231 482.514,339.231C482.514,339.731 482.639,340.206 482.889,340.656C482.989,340.839 482.985,341.018 482.876,341.193C482.768,341.368 482.615,341.456 482.417,341.456L477.914,341.456C477.697,341.456 477.539,341.368 477.439,341.193C477.339,341.018 477.339,340.839 477.439,340.656C477.689,340.206 477.831,339.731 477.864,339.231C477.997,337.298 478.064,335.843 478.064,334.868C478.064,333.893 477.997,332.439 477.864,330.506C477.831,330.006 477.689,329.531 477.439,329.081C477.339,328.914 477.339,328.739 477.439,328.556C477.539,328.373 477.697,328.281 477.914,328.281L481.739,328.281C481.872,328.281 481.993,328.335 482.101,328.443C482.21,328.552 482.264,328.681 482.264,328.831L482.264,329.006C482.931,328.423 483.681,328.098 484.514,328.031C484.681,328.014 484.847,328.006 485.014,328.006C486.331,328.006 487.481,328.539 488.464,329.606Z" style="fill:white;"/>
            </g>
            <g transform="matrix(1,0,0,1,-230.716379,32.618776)">
                <path d="M501.464,338.506C501.564,338.606 501.614,338.727 501.614,338.868C501.614,339.01 501.564,339.131 501.464,339.231C500.815,340.031 500.017,340.643 499.069,341.068C498.12,341.493 497.089,341.706 495.975,341.706C493.646,341.706 491.82,341.102 490.497,339.893C489.175,338.685 488.514,337.014 488.514,334.881C488.514,333.731 488.722,332.71 489.139,331.818C489.556,330.927 490.114,330.21 490.814,329.668C491.514,329.127 492.285,328.718 493.126,328.443C493.968,328.168 494.864,328.031 495.814,328.031C496.547,328.031 497.31,328.206 498.101,328.556C498.893,328.906 499.556,329.456 500.089,330.206C500.872,331.256 501.064,332.339 500.664,333.456C500.481,334.006 500.164,334.481 499.714,334.881C499.264,335.281 498.731,335.564 498.114,335.731C496.881,336.064 495.672,336.231 494.489,336.231C493.956,336.231 493.397,336.206 492.814,336.156C493.181,337.489 494.239,338.156 495.989,338.156C496.339,338.156 496.664,338.081 496.964,337.931C497.264,337.781 497.522,337.573 497.739,337.306C497.956,337.039 498.106,336.731 498.189,336.381C498.272,336.114 498.447,335.981 498.714,335.981C498.864,335.981 498.997,336.031 499.114,336.131L501.464,338.506ZM495.664,331.606C495.514,331.606 495.351,331.627 495.176,331.668C495.001,331.709 494.768,331.783 494.476,331.89C494.185,331.997 493.901,332.194 493.626,332.482C493.351,332.77 493.139,333.128 492.989,333.556C493.222,333.573 493.456,333.581 493.689,333.581C494.639,333.581 495.414,333.481 496.014,333.281C496.614,333.081 496.914,332.823 496.914,332.506C496.931,332.289 496.89,332.114 496.792,331.981C496.629,331.748 496.294,331.631 495.789,331.631C495.756,331.614 495.714,331.606 495.664,331.606Z" style="fill:white;"/>
            </g>
            <g transform="matrix(1,0,0,1,-230.716379,32.618776)">
                <path d="M515.114,336.331C515.497,337.298 515.406,338.298 514.839,339.331C513.956,340.914 511.872,341.706 508.589,341.706C507.406,341.706 506.314,341.493 505.314,341.068C504.314,340.643 503.464,340.031 502.764,339.231C502.681,339.131 502.639,339.006 502.639,338.856C502.639,338.706 502.697,338.581 502.814,338.481L505.314,336.131C505.414,336.031 505.539,335.981 505.689,335.981C505.972,335.981 506.156,336.114 506.239,336.381C506.372,336.848 506.676,337.235 507.151,337.543C507.626,337.852 508.172,338.056 508.789,338.156C509.139,338.206 509.589,338.193 510.139,338.118C510.689,338.043 510.964,337.923 510.964,337.756C510.964,337.606 510.885,337.456 510.726,337.306C510.568,337.156 510.318,337.014 509.976,336.881C509.635,336.748 509.222,336.648 508.739,336.581L505.989,335.906C505.422,335.806 504.906,335.598 504.439,335.281C503.972,334.964 503.614,334.589 503.364,334.156C502.864,333.323 502.772,332.364 503.089,331.281C503.306,330.564 503.747,329.956 504.414,329.456C505.081,328.956 505.818,328.593 506.626,328.368C507.435,328.143 508.272,328.031 509.139,328.031C510.306,328.031 511.386,328.243 512.38,328.668C513.374,329.093 514.219,329.706 514.915,330.506C515.014,330.606 515.064,330.731 515.064,330.881C515.064,331.031 515.014,331.156 514.914,331.256L512.414,333.606C512.314,333.706 512.189,333.756 512.039,333.756C511.756,333.756 511.572,333.614 511.489,333.331C511.389,332.998 511.222,332.698 510.989,332.431C510.756,332.164 510.472,331.956 510.139,331.806C509.806,331.656 509.456,331.581 509.089,331.581C508.706,331.581 508.368,331.618 508.076,331.693C507.785,331.768 507.572,331.856 507.439,331.956C507.306,332.056 507.239,332.148 507.239,332.231C507.239,332.298 507.276,332.377 507.351,332.468C507.426,332.56 507.572,332.652 507.789,332.743C508.006,332.835 508.272,332.906 508.589,332.956L511.964,333.831C512.731,334.048 513.389,334.377 513.939,334.818C514.489,335.26 514.881,335.764 515.114,336.331Z" style="fill:white;"/>
            </g>
        </g>
    </g>
    <defs>
        <linearGradient id="_Linear1" x1="0" y1="0" x2="1" y2="0" gradientUnits="userSpaceOnUse" gradientTransform="matrix(122.62776,0,0,116.058377,191.240854,352.919711)"><stop offset="0" style="stop-color:rgb(239,105,0);stop-opacity:1"/><stop offset="1" style="stop-color:rgb(157,84,0);stop-opacity:1"/></linearGradient>
    </defs>
</svg>
