<?xml version="1.0" encoding="UTF-8" standalone="no"?>
<!DOCTYPE svg PUBLIC "-//W3C//DTD SVG 1.1//EN" "http://www.w3.org/Graphics/SVG/1.1/DTD/svg11.dtd">
<svg width="100%" height="100%" viewBox="0 0 142 60" version="1.1" xmlns="http://www.w3.org/2000/svg" xmlns:xlink="http://www.w3.org/1999/xlink" xml:space="preserve" xmlns:serif="http://www.serif.com/" style="fill-rule:evenodd;clip-rule:evenodd;stroke-linecap:round;stroke-linejoin:round;stroke-miterlimit:1.5;">
    <g transform="matrix(1,0,0,1,-187.379787,-220.148257)">
        <g transform="matrix(1.195483,0,0,1.195483,-55.361693,-48.870708)">
            <g transform="matrix(0.1857,0,0,0.212826,162.459944,120.359266)">
                <path d="M847.312,554.57L847.312,663.71C847.312,693.828 822.86,718.28 792.742,718.28L282.527,718.28C252.409,718.28 227.957,693.828 227.957,663.71L227.957,554.57C227.957,524.452 252.409,500 282.527,500L792.742,500C822.86,500 847.312,524.452 847.312,554.57Z" style="fill:url(#_Linear1);stroke:rgb(252,238,0);stroke-width:17.45px;"/>
            </g>
        </g>
        <g transform="matrix(0.315493,0,0,0.25443,123.11595,73.290341)">
            <g transform="matrix(1,0,0,1,-102.60637,240.231216)">
                <path d="M479.584,426.101L479.184,431.001C478.25,446.201 478.25,461.401 479.184,476.601L479.584,481.701C479.584,482.701 480.05,483.968 480.984,485.501C481.384,486.234 481.384,486.968 480.984,487.701C480.584,488.434 479.984,488.801 479.185,488.801L461.182,488.801C460.317,488.801 459.684,488.434 459.284,487.701C458.884,486.968 458.884,486.234 459.284,485.501C460.284,483.968 460.784,482.701 460.784,481.701L461.184,476.601C461.65,468.534 461.884,460.301 461.884,451.901L457.084,465.201C456.684,466.334 456.584,467.468 456.784,468.601C456.917,469.268 456.784,469.868 456.384,470.401C455.917,470.868 455.35,471.101 454.684,471.101L442.184,471.101C441.45,471.101 440.884,470.834 440.484,470.301C440.017,469.701 439.917,469.068 440.184,468.401C440.384,467.601 440.25,466.501 439.784,465.101L435.084,451.901C435.017,460.368 435.25,468.601 435.784,476.601L435.984,479.901C436.117,481.968 436.65,483.868 437.584,485.601C438.05,486.334 438.067,487.051 437.634,487.751C437.2,488.451 436.584,488.801 435.784,488.801L417.684,488.801C416.817,488.801 416.184,488.434 415.784,487.701C415.384,486.968 415.384,486.234 415.784,485.501C416.784,483.968 417.317,482.701 417.384,481.701L417.684,476.501C418.617,461.368 418.617,446.201 417.684,431.001L417.384,426.101C417.317,424.968 416.784,423.634 415.784,422.101C415.384,421.368 415.384,420.634 415.784,419.901C416.184,419.168 416.817,418.801 417.684,418.801L429.184,418.801C431.717,418.801 434.017,419.534 436.084,421.001C438.15,422.468 439.584,424.368 440.384,426.701L448.484,449.101L456.459,426.701C457.322,424.368 458.767,422.468 460.793,421.001C462.82,419.534 465.097,418.801 467.623,418.801L479.185,418.801C479.984,418.801 480.6,419.168 481.034,419.901C481.467,420.634 481.45,421.368 480.984,422.101C480.05,423.634 479.584,424.968 479.584,426.101ZM490.284,418.801L531.684,418.801C532.284,418.801 532.784,419.018 533.184,419.451C533.584,419.884 533.784,420.401 533.784,421.001L533.784,436.701C533.784,437.301 533.584,437.801 533.184,438.201C532.717,438.601 532.217,438.801 531.684,438.801C531.284,438.801 530.884,438.701 530.484,438.501L528.284,437.401C526.617,436.534 525.217,435.884 524.084,435.451C522.95,435.018 521.067,434.568 518.434,434.101C515.8,433.634 512.717,433.401 509.184,433.401C508.384,433.401 507.984,433.768 507.984,434.501C507.784,437.968 507.65,441.668 507.584,445.601C507.517,445.868 507.6,446.118 507.834,446.351C508.067,446.584 508.317,446.701 508.584,446.701L509.984,446.701C512.717,446.701 514.784,446.301 516.184,445.501C516.584,445.301 516.95,445.201 517.284,445.201C517.884,445.201 518.4,445.401 518.834,445.801C519.267,446.201 519.484,446.701 519.484,447.301L519.484,460.301C519.484,460.901 519.267,461.418 518.834,461.851C518.4,462.284 517.884,462.501 517.284,462.501C516.884,462.501 516.517,462.368 516.184,462.101C515.05,461.301 513.25,460.901 510.784,460.901L508.584,460.901C508.317,460.901 508.067,461.018 507.834,461.251C507.6,461.484 507.517,461.734 507.584,462.001C507.65,465.934 507.784,469.634 507.984,473.101C507.984,473.834 508.384,474.201 509.184,474.201C512.717,474.201 515.8,473.968 518.434,473.501C521.067,473.034 522.934,472.584 524.034,472.151C525.134,471.718 526.55,471.068 528.284,470.201C529.284,469.668 530.084,469.268 530.684,469.001C530.95,468.868 531.284,468.801 531.684,468.801C532.284,468.801 532.784,469.001 533.184,469.401C533.584,469.801 533.784,470.301 533.784,470.901L533.784,486.601C533.784,487.001 533.7,487.368 533.534,487.701C533.367,488.034 533.117,488.301 532.784,488.501C532.45,488.701 532.084,488.801 531.684,488.801L490.084,488.801C489.217,488.801 488.584,488.434 488.184,487.701C487.784,486.968 487.784,486.234 488.184,485.501C489.184,483.968 489.684,482.701 489.684,481.701L490.084,476.601C491.017,461.401 491.017,446.201 490.084,431.001L489.784,426.101C489.65,424.701 489.217,423.401 488.484,422.201C488.017,421.401 487.984,420.634 488.384,419.901C488.784,419.168 489.417,418.801 490.284,418.801ZM590.884,479.901C591.017,481.968 591.584,483.868 592.584,485.601C592.984,486.334 592.967,487.051 592.534,487.751C592.1,488.451 591.484,488.801 590.684,488.801L580.984,488.801C574.784,488.801 570.317,485.601 567.584,479.201L559.784,455.101C559.784,462.501 559.984,469.668 560.384,476.601L560.684,479.901C560.684,481.968 561.184,483.868 562.184,485.601C562.584,486.334 562.584,487.051 562.184,487.751C561.784,488.451 561.184,488.801 560.385,488.801L542.382,488.801C541.517,488.801 540.884,488.434 540.484,487.701C540.084,486.968 540.084,486.234 540.484,485.501C541.484,483.968 541.984,482.701 541.984,481.701L542.384,476.601C543.317,461.401 543.317,446.201 542.384,431.001L542.084,426.101C541.95,424.701 541.517,423.401 540.784,422.201C540.317,421.401 540.284,420.634 540.684,419.901C541.084,419.168 541.717,418.801 542.584,418.801L552.084,418.801C555.15,418.801 557.917,419.701 560.384,421.501C562.85,423.301 564.55,425.634 565.484,428.501L573.284,452.601C573.284,445.134 573.05,437.934 572.584,431.001L572.284,426.101C572.217,424.701 571.784,423.401 570.984,422.201C570.517,421.401 570.517,420.634 570.984,419.901C571.384,419.168 572.017,418.801 572.884,418.801L590.684,418.801C591.55,418.801 592.184,419.168 592.584,419.901C592.984,420.634 592.95,421.368 592.484,422.101C591.55,423.634 591.05,424.901 590.984,425.901L590.684,431.001C589.684,446.201 589.684,461.401 590.684,476.601L590.884,479.901ZM653.284,418.801C654.15,418.801 654.784,419.151 655.184,419.851C655.584,420.551 655.584,421.268 655.184,422.001C654.184,423.734 653.617,425.634 653.484,427.701L653.284,431.001C652.75,439.268 652.517,448.301 652.584,458.101C652.584,469.368 650.584,477.468 646.584,482.401C642.584,487.334 636.05,489.801 626.984,489.801C620.917,489.801 616.017,488.718 612.284,486.551C608.55,484.384 605.8,481.001 604.034,476.401C602.267,471.801 601.384,465.701 601.384,458.101C601.517,449.568 601.284,440.534 600.684,431.001L600.384,426.101C600.317,424.968 599.784,423.634 598.784,422.101C598.317,421.368 598.317,420.634 598.784,419.901C599.184,419.168 599.784,418.801 600.584,418.801L618.759,418.801C619.509,418.801 620.084,419.151 620.484,419.851C620.884,420.551 620.884,421.268 620.484,422.001C619.484,423.734 618.984,425.634 618.984,427.701L618.684,431.001C618.15,439.268 617.917,448.301 617.984,458.101C617.984,461.434 618.217,464.268 618.684,466.601C619.15,468.934 619.7,470.668 620.334,471.801C620.967,472.934 621.767,473.801 622.734,474.401C623.7,475.001 624.45,475.351 624.984,475.451C625.517,475.551 626.184,475.601 626.984,475.601C627.85,475.601 628.567,475.551 629.134,475.451C629.7,475.351 630.467,475.001 631.434,474.401C632.4,473.801 633.167,472.934 633.734,471.801C634.3,470.668 634.817,468.934 635.284,466.601C635.75,464.268 635.984,461.434 635.984,458.101C636.117,449.568 635.85,440.534 635.184,431.001L634.884,426.101C634.817,424.968 634.317,423.634 633.384,422.101C632.917,421.368 632.884,420.634 633.284,419.901C633.684,419.168 634.317,418.801 635.184,418.801L653.284,418.801Z" style="fill:white;"/>
            </g>
        </g>
    </g>
    <defs>
        <linearGradient id="_Linear1" x1="0" y1="0" x2="1" y2="0" gradientUnits="userSpaceOnUse" gradientTransform="matrix(619.354904,0,0,218.279603,227.956956,609.139801)"><stop offset="0" style="stop-color:rgb(164,54,255);stop-opacity:1"/><stop offset="1" style="stop-color:rgb(0,15,233);stop-opacity:1"/></linearGradient>
    </defs>
</svg>
