<?xml version="1.0" encoding="UTF-8" standalone="no"?>
<!DOCTYPE svg PUBLIC "-//W3C//DTD SVG 1.1//EN" "http://www.w3.org/Graphics/SVG/1.1/DTD/svg11.dtd">
<svg width="100%" height="100%" viewBox="0 0 97 97" version="1.1" xmlns="http://www.w3.org/2000/svg" xmlns:xlink="http://www.w3.org/1999/xlink" xml:space="preserve" xmlns:serif="http://www.serif.com/" style="fill-rule:evenodd;clip-rule:evenodd;stroke-linecap:round;stroke-linejoin:round;stroke-miterlimit:1.5;">
    <g transform="matrix(1,0,0,1,-342.860357,-302.495444)">
        <g transform="matrix(0.733928,0,0,0.775472,205.628256,76.941157)">
            <path d="M313.869,323.905L313.869,381.934C313.869,397.948 300.132,410.949 283.212,410.949L221.898,410.949C204.978,410.949 191.241,397.948 191.241,381.934L191.241,323.905C191.241,307.892 204.978,294.891 221.898,294.891L283.212,294.891C300.132,294.891 313.869,307.892 313.869,323.905Z" style="fill:url(#_Linear1);stroke:rgb(255,243,242);stroke-width:8.28px;"/>
        </g>
        <g transform="matrix(0.75,0,0,0.75,247.44883,9.370444)">
            <g transform="matrix(0.519165,0,0,0.507398,145.331013,409.056849)">
                <path d="M103.5,2.039C107.635,2.184 108.241,0.819 111,3.886C112.362,5.399 112.617,28.03 114.686,29.196C114.915,29.325 118.024,30.138 123.769,34.097C128.243,37.18 128.485,38.609 133.374,36.234C152.511,26.936 153.091,27.329 154.591,28.344C156.62,29.717 156.729,29.79 170.772,54.348C175.105,61.927 178.719,64.144 170.252,70.108C155.198,80.711 155.066,80.93 154.879,82.499C154.834,82.878 156.003,88.742 155.42,94.492C155.168,96.986 153.178,98.037 158.606,102.349C172.953,113.749 176.445,114.173 172.769,120.647C166.44,131.793 160.235,142.397 159.132,144.281C154.797,151.691 154.124,154.457 146.417,150.678C129.29,142.28 128.781,142.509 127.494,143.492C116.267,152.065 113.028,149.172 112.688,153.525C110.892,176.494 110.927,178.633 105.512,178.776C67.985,179.769 67.061,179.243 65.96,176.269C64.583,172.55 64.409,153.388 62.508,151.49C62.298,151.28 53.879,147.171 51.54,145.444C46.332,141.598 45.816,143.83 39.734,145.994C38.233,146.527 30.414,150.341 29.61,150.733C20.088,155.376 20.652,149.708 13.279,137.621C1.38,118.116 1.641,117.314 2.257,115.43C4.041,109.965 23.649,102.413 23.358,97.505C22.909,89.923 23.077,90.022 23.371,82.502C23.48,79.74 21.967,80.588 8.158,69.933C5.715,68.048 -0.769,66.858 6.638,55.582C9.374,51.416 20.197,32.433 21.352,30.407C24.367,25.119 27.917,29.426 38.254,32.995C39.947,33.58 46.906,39.49 50.453,36.442C57.187,30.657 64.269,30.502 64.466,26.497C65.579,3.88 66.749,3.34 68.515,2.525C69.783,1.94 69.754,2.039 103.5,2.039Z" style="fill:rgb(235,235,235);fill-opacity:1;stroke:rgb(139,89,45);stroke-opacity:1;stroke-width:5.41px;stroke-linecap:butt;stroke-miterlimit:2;"/>
                <path d="M85.533,111.059C61.176,105.577 65.511,79.516 76.724,72.827C101.335,58.146 119.448,90.977 103.264,105.233C95.116,112.409 88.748,111.06 85.533,111.059Z" style="fill:rgb(235,235,235);fill-opacity:1;stroke:rgb(218,125,43);stroke-opacity:1;stroke-width:5.41px;stroke-linecap:butt;stroke-miterlimit:2;"/>
                <path d="M37.971,90.498C38.053,86.886 38.577,63.803 57.83,49.934C103.784,16.831 154.735,67.961 135.078,110.313C112.011,160.013 39.611,145.99 37.971,90.498ZM85.533,111.059C61.176,105.577 65.511,79.516 76.724,72.827C101.335,58.146 119.448,90.977 103.264,105.233C95.116,112.409 88.748,111.06 85.533,111.059Z" style="fill:rgb(218,125,43);fill-opacity:1;stroke:rgb(139,89,45);stroke-opacity:1;stroke-width:5.41px;stroke-linecap:butt;stroke-miterlimit:2;"/>
            </g>
        </g>
    </g>
    <defs>
        <linearGradient id="_Linear1" x1="0" y1="0" x2="1" y2="0" gradientUnits="userSpaceOnUse" gradientTransform="matrix(122.62776,0,0,116.058377,191.240854,352.919711)"><stop offset="0" style="stop-color:rgb(239,105,0);stop-opacity:1"/><stop offset="1" style="stop-color:rgb(157,84,0);stop-opacity:1"/></linearGradient>
    </defs>
</svg>
